<svg xmlns="http://www.w3.org/2000/svg" width="300" height="300" viewBox="0 0 300 300" fill="none">
  <g clip-path="url(#clip0_1_5)">
    <path d="M150 280C221.797 280 280 221.797 280 150C280 78.203 221.797 20 150 20C78.203 20 20 78.203 20 150C20 221.797 78.203 280 150 280Z" fill="#E6F0FF" stroke="#3B82F6" stroke-width="2"/>
    <rect x="60" y="80" width="180" height="140" rx="8" fill="white" stroke="#3B82F6" stroke-width="2"/>
    <path d="M60 120H240" stroke="#3B82F6" stroke-width="2"/>
    <circle cx="80" cy="100" r="6" fill="#EF4444"/>
    <circle cx="100" cy="100" r="6" fill="#F59E0B"/>
    <circle cx="120" cy="100" r="6" fill="#10B981"/>
    <path d="M80 160L120 140L160 180L200 130L240 150" stroke="#3B82F6" stroke-width="3" stroke-linecap="round" stroke-linejoin="round"/>
    <circle cx="120" cy="140" r="6" fill="#3B82F6"/>
    <circle cx="160" cy="180" r="6" fill="#3B82F6"/>
    <circle cx="200" cy="130" r="6" fill="#3B82F6"/>
    <rect x="80" y="240" width="40" height="60" rx="4" fill="#3B82F6" fill-opacity="0.2"/>
    <rect x="130" y="220" width="40" height="80" rx="4" fill="#3B82F6" fill-opacity="0.4"/>
    <rect x="180" y="200" width="40" height="100" rx="4" fill="#3B82F6" fill-opacity="0.6"/>
  </g>
  <defs>
    <clipPath id="clip0_1_5">
      <rect width="300" height="300" fill="white"/>
    </clipPath>
  </defs>
</svg> 