<svg xmlns="http://www.w3.org/2000/svg" width="300" height="300" viewBox="0 0 300 300" fill="none">
  <g clip-path="url(#clip0_1_3)">
    <path d="M150 280C221.797 280 280 221.797 280 150C280 78.203 221.797 20 150 20C78.203 20 20 78.203 20 150C20 221.797 78.203 280 150 280Z" fill="#E6F0FF" stroke="#3B82F6" stroke-width="2"/>
    <rect x="80" y="80" width="140" height="180" rx="8" fill="white" stroke="#3B82F6" stroke-width="2"/>
    <path d="M100 110H200" stroke="#3B82F6" stroke-width="2" stroke-linecap="round"/>
    <path d="M100 140H200" stroke="#3B82F6" stroke-width="2" stroke-linecap="round"/>
    <path d="M100 170H200" stroke="#3B82F6" stroke-width="2" stroke-linecap="round"/>
    <path d="M100 200H160" stroke="#3B82F6" stroke-width="2" stroke-linecap="round"/>
    <circle cx="220" cy="80" r="40" fill="#3B82F6" fill-opacity="0.2"/>
    <path d="M220 60V100" stroke="#3B82F6" stroke-width="3" stroke-linecap="round"/>
    <path d="M200 80H240" stroke="#3B82F6" stroke-width="3" stroke-linecap="round"/>
    <path d="M180 200L220 200L220 240L180 240L180 200Z" fill="#3B82F6" fill-opacity="0.2"/>
    <path d="M220 180L260 180L260 240L220 240L220 180Z" fill="#3B82F6" fill-opacity="0.4"/>
    <path d="M180 150C180 144.477 184.477 140 190 140H210C215.523 140 220 144.477 220 150V200H180V150Z" fill="#3B82F6" fill-opacity="0.6"/>
    <circle cx="200" cy="170" r="10" fill="white"/>
    <path d="M195 170L200 175L205 165" stroke="#3B82F6" stroke-width="2" stroke-linecap="round" stroke-linejoin="round"/>
  </g>
  <defs>
    <clipPath id="clip0_1_3">
      <rect width="300" height="300" fill="white"/>
    </clipPath>
  </defs>
</svg> 