<svg xmlns="http://www.w3.org/2000/svg" width="300" height="300" viewBox="0 0 300 300" fill="none">
  <g clip-path="url(#clip0_1_4)">
    <path d="M150 280C221.797 280 280 221.797 280 150C280 78.203 221.797 20 150 20C78.203 20 20 78.203 20 150C20 221.797 78.203 280 150 280Z" fill="#E6F0FF" stroke="#3B82F6" stroke-width="2"/>
    <path d="M80 100C80 95.5817 83.5817 92 88 92H212C216.418 92 220 95.5817 220 100V180C220 184.418 216.418 188 212 188H160L140 208V188H88C83.5817 188 80 184.418 80 180V100Z" fill="white" stroke="#3B82F6" stroke-width="2"/>
    <path d="M100 120H200" stroke="#3B82F6" stroke-width="2" stroke-linecap="round"/>
    <path d="M100 140H200" stroke="#3B82F6" stroke-width="2" stroke-linecap="round"/>
    <path d="M100 160H160" stroke="#3B82F6" stroke-width="2" stroke-linecap="round"/>
    <path d="M180 160H200" stroke="#3B82F6" stroke-width="2" stroke-linecap="round"/>
    <path d="M120 200C120 195.582 123.582 192 128 192H252C256.418 192 260 195.582 260 200V240C260 244.418 256.418 248 252 248H140L120 268V248H128C123.582 248 120 244.418 120 240V200Z" fill="#3B82F6" fill-opacity="0.2" stroke="#3B82F6" stroke-width="2"/>
    <path d="M140 212H240" stroke="#3B82F6" stroke-width="2" stroke-linecap="round"/>
    <path d="M140 228H200" stroke="#3B82F6" stroke-width="2" stroke-linecap="round"/>
    <circle cx="220" cy="228" r="10" fill="#3B82F6" fill-opacity="0.6"/>
    <path d="M215 228L220 233L225 223" stroke="white" stroke-width="2" stroke-linecap="round" stroke-linejoin="round"/>
  </g>
  <defs>
    <clipPath id="clip0_1_4">
      <rect width="300" height="300" fill="white"/>
    </clipPath>
  </defs>
</svg> 