<svg xmlns="http://www.w3.org/2000/svg" width="400" height="400" viewBox="0 0 400 400" fill="none">
  <g clip-path="url(#clip0_1_2)">
    <path d="M200 370C292.843 370 368 294.843 368 202C368 109.157 292.843 34 200 34C107.157 34 32 109.157 32 202C32 294.843 107.157 370 200 370Z" fill="#E6F0FF" stroke="#3B82F6" stroke-width="2"/>
    <rect x="100" y="100" width="200" height="240" rx="8" fill="white" stroke="#3B82F6" stroke-width="2"/>
    <rect x="120" y="130" width="160" height="20" rx="4" fill="#EBF5FF"/>
    <rect x="120" y="160" width="160" height="20" rx="4" fill="#EBF5FF"/>
    <rect x="120" y="190" width="160" height="20" rx="4" fill="#EBF5FF"/>
    <rect x="120" y="220" width="160" height="20" rx="4" fill="#EBF5FF"/>
    <rect x="120" y="250" width="160" height="20" rx="4" fill="#EBF5FF"/>
    <rect x="120" y="280" width="80" height="20" rx="4" fill="#3B82F6"/>
    <circle cx="300" cy="100" r="30" fill="#3B82F6"/>
    <path d="M290 100L298 108L310 92" stroke="white" stroke-width="3" stroke-linecap="round" stroke-linejoin="round"/>
    <path d="M320 180L340 180L340 320L320 320L320 180Z" fill="#3B82F6" fill-opacity="0.2"/>
    <path d="M340 200L360 200L360 320L340 320L340 200Z" fill="#3B82F6" fill-opacity="0.4"/>
    <path d="M360 160L380 160L380 320L360 320L360 160Z" fill="#3B82F6" fill-opacity="0.6"/>
  </g>
  <defs>
    <clipPath id="clip0_1_2">
      <rect width="400" height="400" fill="white"/>
    </clipPath>
  </defs>
</svg> 